<?xml version="1.0" encoding="UTF-8"?>
<svg id="Layer_3" data-name="Layer 3" xmlns="http://www.w3.org/2000/svg" viewBox="0 0 200 170">
  <defs>
    <style>
      .cls-1 {
        fill: #71c59c;
      }

      .cls-2 {
        fill: #00854e;
      }
    </style>
  </defs>
  <path class="cls-2" d="m176.1,71.8c0-39.2-43.7-66.5-43.7-66.5l-32,53.6L68.4,5.3S24.7,32.7,24.7,71.8c0,0-3.5,36.8,27.8,66.5l13-18.1s-43-44.6-.3-84.5l35.2,63.3,35.2-63.3c42.7,40-.3,84.5-.3,84.5l13,18.1c31.3-29.7,27.8-66.5,27.8-66.5h0Z"/>
  <g>
    <path class="cls-1" d="m138.6,57.1l-38.2,63.9-38.3-63.9c-11.1,23-1,39.8-1,39.8l39.2,68.1,39.2-68.1c.1,0,10.2-16.8-.9-39.8h0Z"/>
    <path class="cls-1" d="m8.6,5.2h24.4l5.9,11.4s-10,6.4-13.8,18.7L8.6,5.2Z"/>
    <path class="cls-1" d="m191.4,5h-24.4l-5.9,11.4s10,6.4,13.8,18.7c0,0,16.5-30.1,16.5-30.1Z"/>
  </g>
</svg>